# AST/ASF file generated using VICON BodyLanguage
# -----------------------------------------------
:version 1.10
:name VICON
:units
  mass 1.0
  length 0.45
  angle deg
:documentation
   .ast/.asf automatically generated from VICON data using
   VICON BodyBuilder and BodyLanguage model FoxedUp or BRILLIANT.MOD
:root
   order TX TY TZ RX RY RZ
   axis XYZ
   position 0 0 0  
   orientation 0 0 0 
:bonedata
  begin
     id 1 
     name lhipjoint
     direction 0.612567 -0.751349 0.245431 
     length 2.42285 
     axis 0 0 0  XYZ
  end
  begin
     id 2 
     name lfemur
     direction 0.34202 -0.939693 0  
     length 7.11304  
     axis 0 0 20  XYZ
    dof rx ry rz
    limits (-160.0 20.0)
           (-70.0 70.0)
           (-60.0 70.0)
  end
  begin
     id 3 
     name ltibia
     direction 0.34202 -0.939693 0   
     length 7.84529   
     axis 0 0 20   XYZ
    dof rx
    limits (-10.0 170.0)
  end
  begin
     id 4 
     name lfoot
     direction 0.0779239 -0.214094 0.9737   
     length 1.97176   
     axis -90 7.62852e-016 20   XYZ
    dof rx rz
    limits (-45.0 90.0)
           (-70.0 20.0)
  end
  begin
     id 5 
     name ltoes
     direction 1.53565e-011 -4.21709e-011 1   
     length 0.993197   
     axis -90 7.62852e-016 20   XYZ
    dof rx
    limits (-90.0 20.0)
  end
  begin
     id 6 
     name rhipjoint
     direction -0.665722 -0.709315 0.231701   
     length 2.56642  
     axis 0 0 0  XYZ 
  end
  begin
     id 7 
     name rfemur
     direction -0.34202 -0.939693 0   
     length 7.32108   
     axis 0 0 -20   XYZ
    dof rx ry rz
    limits (-160.0 20.0)
           (-70.0 70.0)
           (-70.0 60.0)
  end
  begin
     id 8 
     name rtibia
     direction -0.34202 -0.939693 0   
     length 7.81254   
     axis 0 0 -20   XYZ
    dof rx
    limits (-10.0 170.0)
 end
 begin
     id 9 
     name rfoot
     direction -0.0832806 -0.228812 0.969902   
     length 2.08278  
     axis -90 -7.62852e-016 -20   XYZ
    dof rx rz
    limits (-45.0 90.0)
           (-20.0 70.0)
  end
  begin
     id 10 
     name rtoes
     direction -1.53589e-011 -4.22086e-011 1   
     length 1.04609   
     axis -90 -7.62852e-016 -20   XYZ
    dof rx
    limits (-90.0 20.0)
  end
  begin
     id 11 
     name lowerback
     direction -0.00506013 0.988403 -0.151766   
     length 2.01978   
     axis 0 0 0   XYZ
    dof rx ry rz
    limits (-20.0 45.0)
           (-30.0 30.0)
           (-30.0 30.0)
  end
  begin
     id 12 
     name upperback
     direction -0.00836389 0.99968 0.0238859   
     length 2.01276   
     axis 0 0 0   XYZ
    dof rx ry rz
    limits (-20.0 45.0)
           (-30.0 30.0)
           (-30.0 30.0)
  end
  begin
     id 13 
     name thorax
     direction -0.00684136 0.995386 0.0957043   
     length 2.07303   
     axis 0 0 0   XYZ
    dof rx ry rz
    limits (-20.0 45.0)
           (-30.0 30.0)
           (-30.0 30.0)
  end
  begin
     id 14 
     name lowerneck
     direction -0.0161045 0.999661 0.0204485   
     length 1.91243   
     axis 0 0 0   XYZ
    dof rx ry rz
    limits (-20.0 45.0)
           (-30.0 30.0)
           (-30.0 30.0)
  end
  begin
     id 15 
     name upperneck
     direction 0.0553583 0.990946 -0.122319   
     length 1.91574   
     axis 0 0 0   XYZ
    dof rx ry rz
    limits (-20.0 45.0)
           (-30.0 30.0)
           (-30.0 30.0)
  end
  begin
     id 16
     name head
     direction 0.0180273 0.998839 -0.0446756  
     length 1.92693  
     axis 0 0 0   XYZ
    dof rx ry rz
    limits (-20.0 45.0)
           (-30.0 30.0)
           (-30.0 30.0)
  end
  begin
     id 17 
     name lclavicle
     direction 0.945646 0.319323 -0.0615358  
     length 4.0076  
     axis 0 0 0   XYZ
    dof ry rz
    limits (-20.0 10.0)
           (0.0 20.0)
  end
  begin
     id 18 
     name lhumerus
     direction 1 -4.48967e-011 -2.79996e-027   
     length 5.64147   
     axis 180 -30 -90   XYZ
    dof rx ry rz
    limits (-60.0 90.0)
           (-90.0 90.0)
           (-90.0 90.0)
  end
  begin
     id 19
     name lradius
     direction 1 -4.48976e-011 -9.5122e-027   
     length 2.86444   
     axis 180 -30 -90   XYZ
    dof rx
    limits (-10.0 170.0)
  end
  begin
     id 20
     name lwrist
     direction 1 -4.48983e-011 -1.24047e-026   
     length 1.43222   
     axis 9.05591e-015 90 90   XYZ
    dof ry
    limits (-180.0 0.0)
 end
  begin
     id 21 
     name lhand
     direction 1 -4.4892e-011 -2.48094e-026   
     length 0.722123   
     axis 1.58305e-014 90 90   XYZ
    dof rx rz
    limits (-90.0 90.0)
           (-45.0 45.0)
  end
  begin
     id 22 
     name lfingers
     direction 1 -4.48895e-011 -4.96187e-026   
     length 0.582194   
     axis 3.1661e-014 90 90   XYZ
    dof rx
    limits (0.0 90.0)
  end
  begin
     id 23
     name lthumb
     direction 0.707107 -6.34961e-011 0.707107   
     length 0.835918   
     axis -90 45 2.85299e-015   XYZ
    dof rx rz
    limits (-45.0 45.0)
           (-45.0 45.0)
  end
  begin
     id 24 
     name rclavicle
     direction -0.932635 0.324218 -0.15835   
     length 3.65819  
     axis 0 0 0   XYZ 
    dof ry rz
    limits (-10.0 20.0)
           (-20.0 0.0)
  end
  begin
     id 25 
     name rhumerus
     direction -1 -4.48965e-011 -4.02296e-027  
     length 5.44729   
     axis 180 30 90   XYZ
    dof rx ry rz
    limits (-90.0 60.0)
           (-90.0 90.0)
           (-90.0 90.0)
  end
  begin
     id 26 
     name rradius
     direction -1 -4.48957e-011 -8.81087e-027   
     length 3.08821   
     axis 180 30 90   XYZ
    dof rx
    limits (-10.0 170.0)
  end
  begin
     id 27 
     name rwrist
     direction -1 -4.49015e-011 -1.24047e-026   
     length 1.5441   
     axis 9.05591e-015 -90 -90   XYZ
    dof ry
    limits (-180.0 0.0)
  end
  begin
     id 28
     name rhand
     direction -1 -4.4891e-011 -2.48094e-026   
     length 0.821049   
     axis 1.58305e-014 -90 -90   XYZ
    dof rx rz
    limits (-90.0 90.0)
           (-45.0 45.0)
  end
  begin
     id 29
     name rfingers
     direction -1 -4.48985e-011 -4.96187e-026   
     length 0.661951   
     axis 3.1661e-014 -90 -90   XYZ
    dof rx
    limits (0.0 90.0)
  end
  begin
     id 30
     name rthumb
     direction -0.707107 -6.34906e-011 0.707107   
     length 0.950433   
     axis -90 -45 -2.85299e-015   XYZ
    dof rx rz
    limits (-45.0 45.0)
           (-45.0 45.0)
  end
:hierarchy
  begin
    root lhipjoint rhipjoint lowerback
    lhipjoint lfemur
    lfemur ltibia
    ltibia lfoot
    lfoot ltoes
    rhipjoint rfemur
    rfemur rtibia
    rtibia rfoot
    rfoot rtoes
    lowerback upperback
    upperback thorax
    thorax lowerneck lclavicle rclavicle
    lowerneck upperneck
    upperneck head
    lclavicle lhumerus
    lhumerus lradius
    lradius lwrist
    lwrist lhand lthumb
    lhand lfingers
    rclavicle rhumerus
    rhumerus rradius
    rradius rwrist
    rwrist rhand rthumb
    rhand rfingers
  end

#!OML:ASF F:\VICON\USERDATA\INSTALL\rory3\rory3.ASF
:FULLY-SPECIFIED
:DEGREES
33
root -4.68426 17.46 -15.7816 -0.292698 32.6817 -2.32389
lowerback 0.101438 0.107135 2.49822
upperback 2.53315 0.140097 -1.04154
thorax 2.55333 0.140948 -2.46815
lowerneck -2.03973 -6.44002 -5.60041
upperneck 11.877 -9.16398 7.57696
head 4.49155 -4.36831 2.79083
rclavicle 2.9271e-014 -2.78299e-015
rhumerus -32.916 -11.4247 -83.9573
rradius 30.5575
rwrist 13.9728
rhand -8.01419 7.82854
rfingers 7.12502
rthumb 17.8952 -21.3681
lclavicle 2.9271e-014 -2.78299e-015
lhumerus -26.6885 -3.12148 89.5504
lradius 20.2633
lwrist 27.1721
lhand -12.8123 10.5179
lfingers 7.12502
lthumb 13.2741 40.0752
rfemur -24.1214 -1.53144 25.6453
rtibia 20.6691
rfoot -14.9057 2.32515
rtoes -4.26894
lfemur 18.3958 7.34771 -21.4949
ltibia 3.18055e-014
lfoot -13.1212 0.628415
ltoes -16.808
34
root -4.65748 17.4664 -15.7082 -0.327304 32.8206 -2.43732
lowerback 0.0716158 0.118548 2.67765
upperback 2.52428 0.150908 -0.987652
thorax 2.56244 0.149596 -2.51324
lowerneck -2.01104 -6.45267 -5.67438
upperneck 11.8355 -9.18013 7.6201
head 4.48053 -4.37851 2.8162
rclavicle 6.51517e-014 4.37326e-015
rhumerus -32.9182 -11.3063 -83.9888
rradius 30.5099
rwrist 13.5736
rhand -8.01019 7.90544
rfingers 7.12502
rthumb 17.899 -21.2909
lclavicle 6.51517e-014 4.37326e-015
lhumerus -26.7824 -3.33924 89.674
lradius 20.2928
lwrist 27.4199
lhand -13.1163 10.2528
lfingers 7.12502
lthumb 12.9811 39.8289
rfemur -23.9138 -1.69129 25.8316
rtibia 20.6958
rfoot -14.6046 2.09952
rtoes -4.98867
lfemur 18.6212 7.18784 -21.3326
ltibia -2.8625e-014
lfoot -12.9177 0.857172
ltoes -18.1381
35
root -4.63059 17.4752 -15.6336 -0.225509 32.9297 -2.40036
lowerback -0.00447963 0.137236 2.69763
upperback 2.49857 0.173378 -0.979362
thorax 2.58029 0.161013 -2.51534
lowerneck -2.03673 -6.47222 -5.69575
upperneck 11.8441 -9.21261 7.68657
head 4.4937 -4.39114 2.83696
rclavicle 2.73329e-014 3.57812e-015
rhumerus -32.896 -11.1649 -84.0676
rradius 30.4337
rwrist 13.1381
rhand -8.06731 7.81085
rfingers 7.12502
rthumb 17.8441 -21.3905
lclavicle 2.73329e-014 3.57812e-015
lhumerus -26.8333 -3.35631 89.6983
lradius 20.2669
lwrist 27.5826
lhand -13.3321 9.86561
lfingers 7.12502
lthumb 12.773 39.4549
rfemur -23.7587 -1.83933 25.8724
rtibia 20.7055
rfoot -14.3059 1.9194
rtoes -4.47502
lfemur 17.8362 7.05437 -21.3204
ltibia 1.81848
lfoot -13.4864 0.936396
ltoes -19.2879
36
root -4.60188 17.4851 -15.5586 -0.175007 33.0255 -2.4759
lowerback -0.0970251 0.147626 2.78131
upperback 2.46035 0.182193 -0.922167
thorax 2.5938 0.166113 -2.5031
lowerneck -2.10276 -6.48558 -5.66534
upperneck 11.9216 -9.23304 7.67501
head 4.52794 -4.39732 2.82425
rclavicle 6.65929e-014 1.59028e-015
rhumerus -32.9308 -11.2366 -84.0001
rradius 30.4078
rwrist 13.288
rhand -7.90926 7.85817
rfingers 7.12502
rthumb 17.9961 -21.3292
lclavicle 6.65929e-014 1.59028e-015
lhumerus -26.7896 -2.70131 89.4955
lradius 20.0474
lwrist 26.9439
lhand -13.0578 9.73967
lfingers 7.12502
lthumb 13.0375 39.3122
rfemur -23.5821 -1.92766 25.9771
rtibia 20.6825
rfoot -13.9896 1.77527
rtoes -3.33714
lfemur 17.2203 6.92577 -21.2084
ltibia 3.2967
lfoot -13.8401 0.998817
ltoes -19.9513
37
root -4.57353 17.4936 -15.4833 -0.142142 33.1022 -2.58855
lowerback -0.202994 0.144643 2.86898
upperback 2.43192 0.171693 -0.829476
thorax 2.62359 0.161609 -2.45695
lowerneck -2.1496 -6.48779 -5.62091
upperneck 11.9616 -9.22826 7.5841
head 4.54159 -4.39568 2.78761
rclavicle -5.24792e-014 8.34896e-015
rhumerus -32.9793 -11.0397 -84.0304
rradius 30.4513
rwrist 13.1249
rhand -7.93666 7.98294
rfingers 7.12502
rthumb 17.9698 -21.2069
lclavicle -5.24792e-014 8.34896e-015
lhumerus -26.7888 -2.53361 89.5042
lradius 19.9633
lwrist 26.9077
lhand -12.9736 9.78368
lfingers 7.12502
lthumb 13.1187 39.351
rfemur -23.4219 -1.90557 26.0911
rtibia 20.7033
rfoot -13.751 1.54527
rtoes -3.22772
lfemur 16.9125 6.8254 -21.0503
ltibia 4.18266
lfoot -13.8707 1.10108
ltoes -20.4744
